<svg width="52.000000" height="52.000000" viewBox="0 0 52 52" fill="none" xmlns="http://www.w3.org/2000/svg" xmlns:xlink="http://www.w3.org/1999/xlink">
	<desc>
			Created with Pixso.
	</desc>
	<defs>
		<clipPath id="clip107_1378">
			<rect id="eat 1" width="52.000000" height="52.000000" fill="white" fill-opacity="0"/>
		</clipPath>
	</defs>
	<rect id="eat 1" width="52.000000" height="52.000000" fill="#FFFFFF" fill-opacity="0"/>
	<g clip-path="url(#clip107_1378)">
		<path id="Vector" d="M49.72 23.08C49.72 35.83 39.39 46.16 26.64 46.16C13.89 46.16 3.55 35.83 3.55 23.08C3.55 10.33 13.89 0 26.64 0C39.39 0 49.72 10.33 49.72 23.08Z" fill="#D8ECFE" fill-opacity="1.000000" fill-rule="evenodd"/>
		<path id="Vector" d="M49.72 23.08C49.72 35.83 39.39 46.16 26.64 46.16C19.85 46.16 13.74 43.23 9.52 38.56C13.61 42.27 19.04 44.52 25 44.52C37.75 44.52 48.08 34.19 48.08 21.44C48.08 15.48 45.82 10.05 42.12 5.95C46.79 10.18 49.72 16.28 49.72 23.08Z" fill="#C4E2FF" fill-opacity="1.000000" fill-rule="nonzero"/>
		<path id="Vector" d="M42.73 23.08C42.73 31.96 35.52 39.17 26.64 39.17C17.75 39.17 10.55 31.96 10.55 23.08C10.55 14.19 17.75 6.99 26.64 6.99C35.52 6.99 42.73 14.19 42.73 23.08Z" fill="#B3DAFE" fill-opacity="1.000000" fill-rule="evenodd"/>
		<path id="Vector" d="M42.73 23.08C42.73 31.97 35.52 39.17 26.64 39.17C21.78 39.17 17.42 37.01 14.47 33.61C17.29 36.05 20.97 37.53 25 37.53C33.89 37.53 41.09 30.33 41.09 21.44C41.09 17.41 39.61 13.73 37.17 10.91C40.57 13.86 42.73 18.22 42.73 23.08Z" fill="#8AC9FE" fill-opacity="1.000000" fill-rule="nonzero"/>
		<path id="Vector" d="M14.71 51.98L14.37 51.93C13.35 51.8 12.64 50.87 12.77 49.86L15.91 26.16L19.92 26.69L16.79 50.39C16.65 51.4 15.72 52.11 14.71 51.98Z" fill="#685E68" fill-opacity="1.000000" fill-rule="nonzero"/>
		<path id="Vector" d="M19.92 26.69L16.79 50.33C16.66 51.38 15.7 52.11 14.66 51.97L14.42 51.94C14.02 51.89 13.66 51.71 13.39 51.46C14.12 51.28 14.7 50.66 14.81 49.86L17.91 26.42L19.92 26.69Z" fill="#554E56" fill-opacity="1.000000" fill-rule="nonzero"/>
		<path id="Vector" d="M20.24 8.8L16.21 8.26C15.91 8.23 15.64 8.43 15.6 8.73L14.39 17.9C14.21 19.26 14.8 20.57 15.86 21.29C16.25 21.56 16.45 22.03 16.39 22.51L15.91 26.16L19.92 26.69L20.4 23.04C20.46 22.56 20.78 22.16 21.23 22C22.44 21.58 23.35 20.47 23.53 19.1L24.74 9.94C24.78 9.64 24.57 9.37 24.27 9.33L20.24 8.8Z" fill="#E2DEE2" fill-opacity="1.000000" fill-rule="nonzero"/>
		<path id="Vector" d="M24.74 9.94L23.53 19.11C23.35 20.47 22.43 21.58 21.23 22C20.78 22.16 20.46 22.56 20.4 23.04L19.92 26.69L17.9 26.42L18.42 22.44C18.48 21.97 18.79 21.56 19.24 21.4C20.45 20.98 21.36 19.87 21.54 18.51L22.75 9.34C22.76 9.27 22.76 9.19 22.74 9.13L24.27 9.33C24.57 9.37 24.78 9.64 24.74 9.94Z" fill="#CBC4CC" fill-opacity="1.000000" fill-rule="nonzero"/>
		<path id="Vector" d="M19.46 8.69L18.38 16.93C18.32 17.32 17.99 17.61 17.6 17.61C17.57 17.61 17.53 17.61 17.5 17.6C17.07 17.55 16.77 17.15 16.82 16.72L17.91 8.49L17.91 8.49L19.46 8.69Z" fill="#B5ADB6" fill-opacity="1.000000" fill-rule="nonzero"/>
		<path id="Vector" d="M22.57 9.11L21.48 17.34C21.43 17.73 21.09 18.02 20.71 18.02C20.67 18.02 20.64 18.02 20.6 18.01C20.17 17.96 19.87 17.56 19.93 17.13L21.02 8.9L22.57 9.11Z" fill="#B5ADB6" fill-opacity="1.000000" fill-rule="nonzero"/>
		<path id="Vector" d="M38.86 51.95L38.52 51.98C37.5 52.09 36.59 51.36 36.48 50.34L33.94 26.57L37.96 26.14L40.5 49.91C40.61 50.93 39.88 51.84 38.86 51.95Z" fill="#685E68" fill-opacity="1.000000" fill-rule="nonzero"/>
		<path id="Vector" d="M38.81 51.95L38.57 51.98C38.16 52.02 37.78 51.93 37.44 51.75C38.12 51.4 38.55 50.66 38.46 49.86L35.95 26.36L37.96 26.14L40.5 49.86C40.61 50.9 39.85 51.84 38.81 51.95Z" fill="#554E56" fill-opacity="1.000000" fill-rule="nonzero"/>
		<path id="Vector" d="M37.96 26.14L33.94 26.57L33.62 23.66C33.57 23.18 33.34 22.73 32.97 22.42L32.12 21.7C31.68 21.32 31.43 20.76 31.46 20.17L32.1 6.71C32.15 5.78 32.86 5.02 33.79 4.92C34.83 4.81 35.76 5.56 35.87 6.6L37.96 26.14Z" fill="#E2DEE2" fill-opacity="1.000000" fill-rule="nonzero"/>
		<path id="Vector" d="M37.96 26.14L35.95 26.36L33.86 6.82C33.79 6.15 33.37 5.6 32.81 5.32C33.09 5.1 33.42 4.96 33.79 4.92C33.86 4.91 33.93 4.91 33.99 4.91C34.95 4.91 35.77 5.63 35.87 6.6L37.96 26.14Z" fill="#CBC4CC" fill-opacity="1.000000" fill-rule="nonzero"/>
		<path id="Vector" d="M44.94 3.06C44.54 4.33 43.51 6.64 41.1 7.54C40.9 7.61 40.9 7.9 41.1 7.97C43.51 8.87 44.54 11.18 44.94 12.45C45.01 12.67 45.31 12.67 45.38 12.45C45.78 11.18 46.81 8.87 49.23 7.97C49.42 7.9 49.42 7.61 49.23 7.54C46.81 6.64 45.78 4.33 45.38 3.06C45.31 2.84 45.01 2.84 44.94 3.06Z" fill="#FDB441" fill-opacity="1.000000" fill-rule="nonzero"/>
		<path id="Vector" d="M49.23 7.97C46.81 8.87 45.78 11.18 45.38 12.45C45.31 12.67 45.01 12.67 44.94 12.45C44.76 11.89 44.46 11.12 43.97 10.35C44.41 9.4 44.35 8.47 45.69 7.97C45.88 7.9 45.88 7.61 45.69 7.54C44.35 7.04 44.41 6.11 43.97 5.16C44.46 4.39 44.76 3.62 44.94 3.06C45.01 2.84 45.31 2.84 45.38 3.06C45.78 4.33 46.81 6.64 49.23 7.54C49.42 7.61 49.42 7.9 49.23 7.97Z" fill="#FEA613" fill-opacity="1.000000" fill-rule="nonzero"/>
		<path id="Vector" d="M5.44 40.15C5.12 41.16 4.3 42.99 2.39 43.71C2.23 43.77 2.23 43.99 2.39 44.05C4.3 44.77 5.12 46.6 5.44 47.61C5.49 47.78 5.73 47.78 5.79 47.61C6.1 46.6 6.92 44.77 8.84 44.05C9 43.99 9 43.77 8.84 43.71C6.92 42.99 6.1 41.16 5.79 40.15C5.73 39.98 5.49 39.98 5.44 40.15Z" fill="#FDB441" fill-opacity="1.000000" fill-rule="nonzero"/>
		<path id="Vector" d="M8.84 44.05C6.92 44.77 6.1 46.6 5.79 47.61C5.73 47.78 5.49 47.78 5.44 47.61C5.3 47.16 5.06 46.55 4.66 45.94C5.02 45.19 4.97 44.45 6.03 44.05C6.19 43.99 6.19 43.77 6.03 43.71C4.97 43.31 5.02 42.57 4.66 41.82C5.06 41.21 5.3 40.6 5.44 40.15C5.49 39.98 5.73 39.98 5.79 40.15C6.1 41.16 6.92 42.99 8.84 43.71C8.99 43.77 8.99 43.99 8.84 44.05Z" fill="#FEA613" fill-opacity="1.000000" fill-rule="nonzero"/>
	</g>
</svg>
